<svg version="1.1" id="Layer_1" xmlns="http://www.w3.org/2000/svg" xmlns:xlink="http://www.w3.org/1999/xlink" x="0px" y="0px"
	 width="100%" viewBox="0 0 128 128" enable-background="new 0 0 128 128" xml:space="preserve">
<path fill="#47704C" opacity="1.000000" stroke="none" 
	d="
M129.000000,43.000000 
	C129.000000,71.999992 129.000000,100.499992 129.000000,129.000000 
	C86.333344,129.000000 43.666683,129.000000 1.000019,129.000000 
	C1.000013,86.333344 1.000013,43.666695 1.000006,1.000031 
	C43.666645,1.000020 86.333290,1.000020 128.999969,1.000010 
	C129.000000,14.833333 129.000000,28.666666 129.000000,43.000000 
M54.829235,10.433497 
	C54.560471,10.657255 54.291706,10.881013 53.088364,10.996141 
	C46.780415,10.996721 40.470100,10.886386 34.165012,11.020975 
	C21.048836,11.300958 11.242448,20.634874 11.078055,33.710884 
	C10.825611,53.790592 11.091194,73.876808 11.053591,94.630310 
	C11.069472,95.081161 11.085354,95.532013 11.086811,96.793869 
	C12.955746,111.478462 21.334681,118.944221 36.175308,118.985619 
	C54.997620,119.038124 73.823967,118.768776 92.641365,119.077530 
	C106.137146,119.298958 116.997337,112.598389 118.972496,97.059723 
	C118.934334,93.362663 118.896172,89.665604 118.973244,85.041443 
	C118.983170,68.282288 119.118645,51.521950 118.960289,34.764389 
	C118.848785,22.964958 111.782410,12.915836 100.234634,11.909864 
	C92.194138,11.209424 84.081642,11.335542 75.526993,10.599522 
	C68.286743,1.612795 61.706192,1.432249 54.829235,10.433497 
z"/>
<path fill="#90ECE8" opacity="1.000000" stroke="none" 
	d="
M11.136955,93.960258 
	C11.091194,73.876808 10.825611,53.790592 11.078055,33.710884 
	C11.242448,20.634874 21.048836,11.300958 34.165012,11.020975 
	C40.470100,10.886386 46.780415,10.996721 53.551254,11.480951 
	C54.670586,15.269140 55.139122,18.625610 56.052025,21.856527 
	C56.624649,23.883137 57.864960,25.721090 58.805702,27.643684 
	C56.611454,28.062632 54.425526,28.535011 52.219517,28.878393 
	C51.085785,29.054869 49.663696,28.603716 48.819160,29.140219 
	C47.374012,30.058277 46.280315,31.529566 44.962322,33.304283 
	C45.554104,34.141994 46.222591,34.443951 46.961399,34.681679 
	C47.031719,34.617455 46.903324,34.476768 46.523560,34.312698 
	C46.033566,34.401432 45.923336,34.654240 45.432938,34.956947 
	C45.248623,35.451160 45.444473,35.895477 45.339577,36.490929 
	C45.294785,37.206615 45.550739,37.771168 45.826027,38.220261 
	C45.845360,38.104801 45.614376,38.066498 45.708202,38.334030 
	C46.255646,38.777214 46.709259,38.952873 47.213200,39.161545 
	C47.263523,39.194565 47.331650,39.095314 47.318993,38.975243 
	C47.306339,38.855167 47.066360,38.882038 47.138691,39.275185 
	C50.867577,40.135113 54.524132,40.601894 58.528061,41.113022 
	C58.528061,42.877842 58.528061,44.301376 58.432446,46.139694 
	C57.507122,55.275459 56.677414,63.996441 55.560375,72.922203 
	C50.059742,77.286140 47.338554,76.479462 42.402870,69.263184 
	C45.721153,66.971809 45.668491,64.997482 42.421806,62.318546 
	C39.539600,59.940357 37.173141,56.852409 34.911690,53.828934 
	C32.320343,50.364395 29.882994,50.187523 28.647211,54.278290 
	C27.090462,59.431545 26.306211,64.876923 25.762867,70.254280 
	C25.463802,73.214073 25.326448,77.093971 30.561962,76.151230 
	C31.052641,76.062874 31.845844,76.932846 32.305771,77.511200 
	C35.587723,81.638206 38.819580,85.805061 41.753536,90.199860 
	C38.237179,90.081169 34.877857,90.215340 31.865318,89.258125 
	C25.899994,87.362671 20.511272,87.726768 15.394653,91.449509 
	C14.068510,92.414368 12.561103,93.130096 11.136955,93.960258 
z"/>
<path fill="#90ECE8" opacity="1.000000" stroke="none" 
	d="
M76.001305,11.092420 
	C84.081642,11.335542 92.194138,11.209424 100.234634,11.909864 
	C111.782410,12.915836 118.848785,22.964958 118.960289,34.764389 
	C119.118645,51.521950 118.983170,68.282288 118.492592,85.545288 
	C113.807503,86.291756 108.468018,84.998405 105.632645,87.093674 
	C99.550171,91.588463 93.492424,92.078300 86.871223,90.603271 
	C89.486198,87.822487 91.932579,85.342918 94.362083,82.846924 
	C96.859528,80.281136 97.018097,75.012703 102.544136,75.839111 
	C102.934074,75.897423 103.925278,74.394447 104.025024,73.545570 
	C104.833817,66.662651 104.404831,59.891277 101.143341,53.617020 
	C99.461723,50.382008 97.515350,50.557381 95.227303,53.603642 
	C93.049484,56.503128 90.942703,59.615372 88.184593,61.878288 
	C84.908653,64.566063 83.418907,66.679443 89.434807,70.228836 
	C84.917778,72.401566 81.632217,75.332863 78.489838,75.186661 
	C73.379265,74.948883 72.585281,69.714371 72.384621,65.643600 
	C71.987099,57.579403 72.267197,49.481792 72.267197,40.983990 
	C74.397469,40.731422 76.839844,40.231720 79.288147,40.200775 
	C82.970390,40.154228 85.292610,39.225204 85.295052,34.848320 
	C85.297455,30.537998 83.503410,28.761751 79.302422,28.924971 
	C77.316750,29.002117 75.147957,29.154362 73.390343,28.451654 
	C72.394051,28.053328 71.316803,24.996178 71.540367,24.829191 
	C76.328819,21.252460 76.172592,16.192410 76.001305,11.092420 
z"/>
<path fill="#2B3C5A" opacity="1.000000" stroke="none" 
	d="
M118.896286,97.981674 
	C116.997337,112.598389 106.137146,119.298958 92.641365,119.077530 
	C73.823967,118.768776 54.997620,119.038124 36.175308,118.985619 
	C21.334681,118.944221 12.955746,111.478462 11.451353,96.315903 
	C18.538086,92.342232 24.965820,91.230911 31.830067,96.172592 
	C33.901295,97.663696 37.755318,97.172874 40.693260,96.802078 
	C42.867008,96.527725 44.879669,94.976997 47.281113,93.868050 
	C48.461906,93.461197 49.325687,93.181198 50.544525,92.952011 
	C55.267193,94.383492 59.634800,95.764168 64.001671,97.442711 
	C63.999462,98.137718 63.997986,98.534859 63.996193,99.213158 
	C69.080482,102.789177 74.084946,100.700211 78.745117,98.740097 
	C83.809219,96.610077 88.574043,96.492737 93.808289,97.853104 
	C96.738815,98.614738 100.004395,98.137466 103.118797,98.130058 
	C108.378044,98.117546 113.637131,98.034851 118.896286,97.981674 
z"/>
<path fill="#2B3E5C" opacity="1.000000" stroke="none" 
	d="
M63.996513,98.932007 
	C63.997986,98.534859 63.999462,98.137718 64.241241,97.369247 
	C64.641342,96.949104 64.801132,96.900291 65.370605,96.893005 
	C79.415970,95.172447 89.261482,87.964272 96.081879,76.173981 
	C97.034538,74.527130 99.042610,73.490822 100.562134,72.171883 
	C100.975777,72.472282 101.389412,72.772675 101.803055,73.073074 
	C102.562798,66.567223 102.591789,60.184963 98.545990,53.931580 
	C97.815857,55.286289 97.353241,56.144646 96.559631,57.062462 
	C93.546837,60.198956 90.865021,63.275990 88.093697,66.455719 
	C88.558838,66.735214 89.752815,67.452660 90.944778,68.168892 
	C86.902054,75.099503 84.443535,76.976715 77.858795,77.856339 
	C75.463493,75.239174 71.818817,73.053978 71.469765,70.430321 
	C70.103668,60.162109 69.778694,49.755386 69.055153,39.230465 
	C73.288620,38.733147 76.487312,38.632999 79.519638,37.870884 
	C80.803665,37.548172 81.738098,35.834465 82.882874,34.354233 
	C81.774986,33.001869 80.728294,31.455790 79.434425,31.209780 
	C76.046547,30.565617 72.550743,30.489138 69.056229,29.754791 
	C69.684189,26.537237 70.353867,23.751272 71.025467,20.997431 
	C71.027390,21.029552 70.963516,21.021677 71.239067,20.972141 
	C71.690681,20.611076 71.866753,20.299545 72.045700,20.018997 
	C72.048569,20.049980 71.986748,20.042858 72.262787,19.921741 
	C72.706680,19.438223 72.874527,19.075819 73.184494,18.374516 
	C74.988388,13.619966 73.472771,10.220711 69.751358,7.767539 
	C65.667587,5.075494 62.208618,5.823849 56.999603,10.106213 
	C56.149822,10.073121 55.664505,10.057188 55.179184,10.041255 
	C61.706192,1.432249 68.286743,1.612795 75.764145,10.845970 
	C76.172592,16.192410 76.328819,21.252460 71.540367,24.829191 
	C71.316803,24.996178 72.394051,28.053328 73.390343,28.451654 
	C75.147957,29.154362 77.316750,29.002117 79.302422,28.924971 
	C83.503410,28.761751 85.297455,30.537998 85.295052,34.848320 
	C85.292610,39.225204 82.970390,40.154228 79.288147,40.200775 
	C76.839844,40.231720 74.397469,40.731422 72.267197,40.983990 
	C72.267197,49.481792 71.987099,57.579403 72.384621,65.643600 
	C72.585281,69.714371 73.379265,74.948883 78.489838,75.186661 
	C81.632217,75.332863 84.917778,72.401566 89.434807,70.228836 
	C83.418907,66.679443 84.908653,64.566063 88.184593,61.878288 
	C90.942703,59.615372 93.049484,56.503128 95.227303,53.603642 
	C97.515350,50.557381 99.461723,50.382008 101.143341,53.617020 
	C104.404831,59.891277 104.833817,66.662651 104.025024,73.545570 
	C103.925278,74.394447 102.934074,75.897423 102.544136,75.839111 
	C97.018097,75.012703 96.859528,80.281136 94.362083,82.846924 
	C91.932579,85.342918 89.486198,87.822487 86.553192,90.708740 
	C79.370750,95.593681 72.447060,99.415657 63.996513,98.932007 
z"/>
<path fill="#49A9B7" opacity="1.000000" stroke="none" 
	d="
M63.996197,99.213158 
	C72.447060,99.415657 79.370750,95.593681 86.377190,91.002747 
	C93.492424,92.078300 99.550171,91.588463 105.632645,87.093674 
	C108.468018,84.998405 113.807503,86.291756 118.434967,86.008835 
	C118.896172,89.665604 118.934334,93.362663 118.934387,97.520699 
	C113.637131,98.034851 108.378044,98.117546 103.118797,98.130058 
	C100.004395,98.137466 96.738815,98.614738 93.808289,97.853104 
	C88.574043,96.492737 83.809219,96.610077 78.745117,98.740097 
	C74.084946,100.700211 69.080482,102.789177 63.996197,99.213158 
z"/>
<path fill="#49A9B7" opacity="1.000000" stroke="none" 
	d="
M46.964096,93.994904 
	C44.879669,94.976997 42.867008,96.527725 40.693260,96.802078 
	C37.755318,97.172874 33.901295,97.663696 31.830067,96.172592 
	C24.965820,91.230911 18.538086,92.342232 11.458565,95.910400 
	C11.085354,95.532013 11.069472,95.081161 11.095273,94.295288 
	C12.561103,93.130096 14.068510,92.414368 15.394653,91.449509 
	C20.511272,87.726768 25.899994,87.362671 31.865318,89.258125 
	C34.877857,90.215340 38.237179,90.081169 42.058369,90.313347 
	C44.106056,91.455772 45.535076,92.725334 46.964096,93.994904 
z"/>
<path fill="#213859" opacity="1.000000" stroke="none" 
	d="
M55.004211,10.237376 
	C55.664505,10.057188 56.149822,10.073121 56.851902,10.478674 
	C55.211708,14.649301 55.282036,18.542877 58.373436,21.329205 
	C61.323891,23.988489 61.555225,26.663595 60.595005,30.148922 
	C58.206329,30.416515 55.921894,30.630991 53.650082,30.938677 
	C51.411430,31.241869 49.185566,31.639486 46.475994,32.190544 
	C45.678272,32.513119 45.358650,32.640823 45.039028,32.768528 
	C46.280315,31.529566 47.374012,30.058277 48.819160,29.140219 
	C49.663696,28.603716 51.085785,29.054869 52.219517,28.878393 
	C54.425526,28.535011 56.611454,28.062632 58.805702,27.643684 
	C57.864960,25.721090 56.624649,23.883137 56.052025,21.856527 
	C55.139122,18.625610 54.670586,15.269140 54.018543,11.535267 
	C54.291706,10.881013 54.560471,10.657255 55.004211,10.237376 
z"/>
<path fill="#F88F5B" opacity="1.000000" stroke="none" 
	d="
M46.954094,31.995676 
	C49.185566,31.639486 51.411430,31.241869 53.650082,30.938677 
	C55.921894,30.630991 58.206329,30.416515 60.595005,30.148922 
	C61.555225,26.663595 61.323891,23.988489 58.373436,21.329205 
	C55.282036,18.542877 55.211708,14.649301 57.216362,10.495831 
	C62.208618,5.823849 65.667587,5.075494 69.751358,7.767539 
	C73.472771,10.220711 74.988388,13.619966 72.931931,18.533834 
	C72.353745,19.368988 72.170242,19.705923 71.986740,20.042858 
	C71.986748,20.042858 72.048569,20.049980 71.776306,20.083235 
	C71.323860,20.418219 71.143684,20.719948 70.963516,21.021675 
	C70.963516,21.021677 71.027390,21.029552 70.642487,21.033934 
	C64.282959,23.309343 64.014511,23.963577 65.694679,32.967915 
	C66.963844,31.930613 68.030899,31.058498 69.097954,30.186386 
	C72.550743,30.489138 76.046547,30.565617 79.434425,31.209780 
	C80.728294,31.455790 81.774986,33.001869 82.425430,34.356773 
	C77.917755,34.761185 73.902252,34.993580 69.924866,34.703392 
	C65.893661,34.409275 64.891426,36.020039 64.924225,39.869915 
	C65.086029,58.862495 64.975418,77.857399 64.960915,96.851479 
	C64.801132,96.900291 64.641342,96.949104 64.241974,97.071381 
	C59.634800,95.764168 55.267193,94.383492 50.318260,92.698471 
	C41.597004,87.715988 35.747257,80.978127 32.229591,72.254753 
	C30.733654,72.943153 29.650276,73.441704 27.022299,74.651047 
	C28.191053,66.762665 29.174746,60.123363 30.316278,52.418732 
	C35.059284,57.782951 38.613880,61.803112 42.358685,66.038391 
	C41.406918,66.683983 40.246983,67.470779 38.589794,68.594864 
	C40.881023,71.078873 42.775043,73.620811 45.143433,75.593132 
	C49.417706,79.152603 53.250782,78.487663 57.242100,73.704620 
	C61.725021,64.652908 59.679569,55.241413 60.358334,45.722908 
	C60.566273,43.268295 60.665569,41.183975 60.951126,38.810219 
	C61.889584,37.554344 62.641781,36.587906 64.284912,34.476768 
	C57.671768,34.476768 52.287548,34.476768 46.903324,34.476768 
	C46.903324,34.476768 47.031719,34.617455 47.018852,34.225437 
	C46.988689,33.220840 46.971394,32.608257 46.954094,31.995676 
M68.800278,19.032290 
	C68.923843,16.747513 69.869186,14.049209 68.976738,12.275691 
	C67.665558,9.670033 64.399689,8.838153 62.225353,11.165009 
	C60.826126,12.662393 59.740246,15.885487 60.412735,17.582767 
	C61.746075,20.947954 64.851486,21.845270 68.800278,19.032290 
z"/>
<path fill="#2B3E5B" opacity="1.000000" stroke="none" 
	d="
M56.986511,73.976250 
	C53.250782,78.487663 49.417706,79.152603 45.143433,75.593132 
	C42.775043,73.620811 40.881023,71.078873 38.589794,68.594864 
	C40.246983,67.470779 41.406918,66.683983 42.358685,66.038391 
	C38.613880,61.803112 35.059284,57.782951 30.316278,52.418732 
	C29.174746,60.123363 28.191053,66.762665 27.022299,74.651047 
	C29.650276,73.441704 30.733654,72.943153 32.229591,72.254753 
	C35.747257,80.978127 41.597004,87.715988 49.963196,92.647667 
	C49.325687,93.181198 48.461906,93.461197 47.281113,93.868042 
	C45.535076,92.725334 44.106056,91.455772 42.372204,90.072731 
	C38.819580,85.805061 35.587723,81.638206 32.305771,77.511200 
	C31.845844,76.932846 31.052641,76.062874 30.561962,76.151230 
	C25.326448,77.093971 25.463802,73.214073 25.762867,70.254280 
	C26.306211,64.876923 27.090462,59.431545 28.647211,54.278290 
	C29.882994,50.187523 32.320343,50.364395 34.911690,53.828934 
	C37.173141,56.852409 39.539600,59.940357 42.421806,62.318546 
	C45.668491,64.997482 45.721153,66.971809 42.402870,69.263184 
	C47.338554,76.479462 50.059742,77.286140 55.741859,73.139496 
	C56.469284,73.426750 56.727898,73.701500 56.986511,73.976250 
z"/>
<path fill="#234262" opacity="1.000000" stroke="none" 
	d="
M57.242100,73.704620 
	C56.727898,73.701500 56.469284,73.426750 56.029190,72.934708 
	C56.677414,63.996441 57.507122,55.275459 58.863152,46.231056 
	C59.676208,45.969498 59.962952,46.031353 60.249691,46.093204 
	C59.679569,55.241413 61.725021,64.652908 57.242100,73.704620 
z"/>
<path fill="#85370F" opacity="1.000000" stroke="none" 
	d="
M46.523560,34.312698 
	C52.287548,34.476768 57.671768,34.476768 64.284912,34.476768 
	C62.641781,36.587906 61.889584,37.554344 60.525471,38.755501 
	C55.631157,38.954155 51.348759,38.918095 47.066360,38.882038 
	C47.066360,38.882038 47.306339,38.855167 47.205471,38.233826 
	C46.674103,36.710674 46.243603,35.808865 45.813103,34.907051 
	C45.923336,34.654240 46.033566,34.401432 46.523560,34.312698 
z"/>
<path fill="#373E59" opacity="1.000000" stroke="none" 
	d="
M47.138691,39.275185 
	C51.348759,38.918095 55.631157,38.954155 60.339211,39.044933 
	C60.665569,41.183975 60.566273,43.268295 60.358334,45.722908 
	C59.962952,46.031353 59.676208,45.969498 58.958763,45.816277 
	C58.528061,44.301376 58.528061,42.877842 58.528061,41.113022 
	C54.524132,40.601894 50.867577,40.135113 47.138691,39.275185 
z"/>
<path fill="#373E59" opacity="1.000000" stroke="none" 
	d="
M45.432938,34.956947 
	C46.243603,35.808865 46.674103,36.710674 47.218124,38.353901 
	C47.331650,39.095314 47.263523,39.194565 46.825623,38.898418 
	C46.129940,38.423679 45.872158,38.245090 45.614376,38.066498 
	C45.614376,38.066498 45.845360,38.104801 45.792007,37.719780 
	C45.705879,37.003105 45.673103,36.671452 45.640324,36.339794 
	C45.444473,35.895477 45.248623,35.451160 45.432938,34.956947 
z"/>
<path fill="#373E59" opacity="1.000000" stroke="none" 
	d="
M46.475994,32.190544 
	C46.971394,32.608257 46.988689,33.220840 46.948532,34.289665 
	C46.222591,34.443951 45.554104,34.141994 44.962322,33.304283 
	C45.358650,32.640823 45.678272,32.513119 46.475994,32.190544 
z"/>
<path fill="#213859" opacity="1.000000" stroke="none" 
	d="
M45.708202,38.334030 
	C45.872158,38.245090 46.129940,38.423679 46.775299,38.865402 
	C46.709259,38.952873 46.255646,38.777214 45.708202,38.334030 
z"/>
<path fill="#213859" opacity="1.000000" stroke="none" 
	d="
M45.339577,36.490929 
	C45.673103,36.671452 45.705879,37.003105 45.772675,37.835239 
	C45.550739,37.771168 45.294785,37.206615 45.339577,36.490929 
z"/>
<path fill="#88380F" opacity="1.000000" stroke="none" 
	d="
M65.370605,96.893005 
	C64.975418,77.857399 65.086029,58.862495 64.924225,39.869915 
	C64.891426,36.020039 65.893661,34.409275 69.924866,34.703392 
	C73.902252,34.993580 77.917755,34.761185 82.373985,34.755520 
	C81.738098,35.834465 80.803665,37.548172 79.519638,37.870884 
	C76.487312,38.632999 73.288620,38.733147 69.055153,39.230465 
	C69.778694,49.755386 70.103668,60.162109 71.469765,70.430321 
	C71.818817,73.053978 75.463493,75.239174 77.698631,78.152359 
	C75.634880,81.066521 73.466522,83.454147 71.355141,85.779037 
	C84.741592,86.692169 97.551826,69.721031 96.890625,57.002998 
	C97.353241,56.144646 97.815857,55.286289 98.545990,53.931580 
	C102.591789,60.184963 102.562798,66.567223 101.803055,73.073074 
	C101.389412,72.772675 100.975777,72.472282 100.562134,72.171883 
	C99.042610,73.490822 97.034538,74.527130 96.081879,76.173981 
	C89.261482,87.964272 79.415970,95.172447 65.370605,96.893005 
z"/>
<path fill="#F58C5A" opacity="1.000000" stroke="none" 
	d="
M96.559639,57.062462 
	C97.551826,69.721031 84.741592,86.692169 71.355141,85.779037 
	C73.466522,83.454147 75.634880,81.066521 77.963394,78.382874 
	C84.443535,76.976715 86.902054,75.099503 90.944778,68.168892 
	C89.752815,67.452660 88.558838,66.735214 88.093697,66.455719 
	C90.865021,63.275990 93.546837,60.198956 96.559639,57.062462 
z"/>
<path fill="#893910" opacity="1.000000" stroke="none" 
	d="
M69.056229,29.754793 
	C68.030899,31.058498 66.963844,31.930613 65.694679,32.967915 
	C64.014511,23.963577 64.282959,23.309343 70.640564,21.001812 
	C70.353867,23.751272 69.684189,26.537237 69.056229,29.754793 
z"/>
<path fill="#893910" opacity="1.000000" stroke="none" 
	d="
M71.239067,20.972141 
	C71.143684,20.719948 71.323860,20.418219 71.773430,20.052252 
	C71.866753,20.299545 71.690681,20.611076 71.239067,20.972141 
z"/>
<path fill="#893910" opacity="1.000000" stroke="none" 
	d="
M72.262787,19.921741 
	C72.170242,19.705923 72.353745,19.368988 72.789810,18.872734 
	C72.874527,19.075819 72.706680,19.438223 72.262787,19.921741 
z"/>
<path fill="#30425D" opacity="1.000000" stroke="none" 
	d="
M68.506485,19.296820 
	C64.851486,21.845270 61.746075,20.947954 60.412735,17.582767 
	C59.740246,15.885487 60.826126,12.662393 62.225353,11.165009 
	C64.399689,8.838153 67.665558,9.670033 68.976738,12.275691 
	C69.869186,14.049209 68.923843,16.747513 68.506485,19.296820 
M65.370422,18.520464 
	C66.220955,17.170263 67.372055,15.897233 67.749870,14.425666 
	C67.872810,13.946790 65.976982,12.356885 65.003365,12.355872 
	C64.029335,12.354857 62.129486,13.940316 62.251339,14.419195 
	C62.626091,15.891998 63.774254,17.168007 65.370422,18.520464 
z"/>
<path fill="#8CE4E2" opacity="1.000000" stroke="none" 
	d="
M64.996132,18.520481 
	C63.774254,17.168007 62.626091,15.891998 62.251339,14.419195 
	C62.129486,13.940316 64.029335,12.354857 65.003365,12.355872 
	C65.976982,12.356885 67.872810,13.946790 67.749870,14.425666 
	C67.372055,15.897233 66.220955,17.170263 64.996132,18.520481 
z"/>
</svg>