<svg xmlns="http://www.w3.org/2000/svg" width="533pt" height="200pt" viewBox="0 0 533 200"><g id="graph0" class="graph" transform="translate(18 181.8)"><g id="node1" class="node"><title>work</title><path fill="#06b6d4" fill-opacity=".094" stroke="#06b6d4" stroke-width="1.6" d="M93.34-54.1H23.92c-6 0-12 6-12 12v20.4c0 6 6 12 12 12h69.42c6 0 12-6 12-12v-20.4c0-6-6-12-12-12"/><text xml:space="preserve" x="33.52" y="-29" fill="#06b6d4" font-family="Helvetica,sans-Serif" font-size="13" font-weight="bold">~/work/*</text></g><g id="node2" class="node"><title>work_id</title><path fill="#06b6d4" fill-opacity=".18" stroke="#06b6d4" stroke-width="1.6" d="M485.25-63.8h-236.8c-6 0-12 6-12 12V-12c0 6 6 12 12 12h236.8c6 0 12-6 12-12v-39.8c0-6-6-12-12-12"/><text xml:space="preserve" x="327.83" y="-38.7" fill="#06b6d4" font-family="Helvetica,sans-Serif" font-size="13">gh: </text><text xml:space="preserve" x="349.51" y="-38.7" fill="#06b6d4" font-family="Helvetica,sans-Serif" font-size="13" font-weight="bold">acme-inc</text><text xml:space="preserve" x="258.05" y="-27.5" fill="#06b6d4" font-family="Helvetica,sans-Serif" font-size="11">MCP: linear-work · notion-work · slack-work</text><text xml:space="preserve" x="315.11" y="-16.5" fill="#06b6d4" font-family="Helvetica,sans-Serif" font-size="11">git: neeraj@acme.inc</text></g><g id="edge1" class="edge"><title>work-&gt;work_id</title><path fill="none" stroke="#06b6d4" stroke-width="1.5" d="M105.81-31.9h118.8"/><path fill="#06b6d4" stroke="#06b6d4" stroke-width="1.5" d="m224.5-35.05 9 3.15-9 3.15z"/><text xml:space="preserve" x="176.85" y="-35.2" fill="#06b6d4" font-family="Helvetica,sans-Serif" font-size="11" text-anchor="middle">resolves to</text></g><g id="node3" class="node"><title>personal</title><path fill="#06b6d4" fill-opacity=".094" stroke="#06b6d4" stroke-width="1.6" d="M105.26-154.1H12c-6 0-12 6-12 12v20.4c0 6 6 12 12 12h93.26c6 0 12-6 12-12v-20.4c0-6-6-12-12-12"/><text xml:space="preserve" x="21.6" y="-129" fill="#06b6d4" font-family="Helvetica,sans-Serif" font-size="13" font-weight="bold">~/personal/*</text></g><g id="node4" class="node"><title>personal_id</title><path fill="#06b6d4" fill-opacity=".18" stroke="#06b6d4" stroke-width="1.6" d="M472.14-163.8H261.56c-6 0-12 6-12 12v39.8c0 6 6 12 12 12h210.58c6 0 12-6 12-12v-39.8c0-6-6-12-12-12"/><text xml:space="preserve" x="332.89" y="-138.7" fill="#06b6d4" font-family="Helvetica,sans-Serif" font-size="13">gh: </text><text xml:space="preserve" x="354.57" y="-138.7" fill="#06b6d4" font-family="Helvetica,sans-Serif" font-size="13" font-weight="bold">nrjdalal</text><text xml:space="preserve" x="271.16" y="-127.5" fill="#06b6d4" font-family="Helvetica,sans-Serif" font-size="11">MCP: linear-personal · notion-personal</text><text xml:space="preserve" x="307.77" y="-116.5" fill="#06b6d4" font-family="Helvetica,sans-Serif" font-size="11">git: admin@nrjdalal.com</text></g><g id="edge2" class="edge"><title>personal-&gt;personal_id</title><path fill="none" stroke="#06b6d4" stroke-width="1.5" d="M117.95-131.9h119.74"/><path fill="#06b6d4" stroke="#06b6d4" stroke-width="1.5" d="m237.51-135.05 9 3.15-9 3.15z"/><text xml:space="preserve" x="176.85" y="-135.2" fill="#06b6d4" font-family="Helvetica,sans-Serif" font-size="11" text-anchor="middle">resolves to</text></g></g></svg>