<?xml version="1.0" encoding="UTF-8" standalone="no"?>
<!DOCTYPE svg PUBLIC "-//W3C//DTD SVG 1.1//EN"
 "http://www.w3.org/Graphics/SVG/1.1/DTD/svg11.dtd">
<!-- Generated by graphviz version 14.0.4 (20251115.1723)
 -->
<!-- Pages: 1 -->
<svg width="1420pt" height="116pt"
 viewBox="0.00 0.00 1420.00 116.00" xmlns="http://www.w3.org/2000/svg" xmlns:xlink="http://www.w3.org/1999/xlink">
<g id="graph0" class="graph" transform="scale(1 1) rotate(0) translate(4 112)">
<polygon fill="white" stroke="none" points="-4,4 -4,-112 1416.29,-112 1416.29,4 -4,4"/>
<!-- [root] @api/hono#start -->
<g id="node1" class="node">
<title>[root] @api/hono#start</title>
<ellipse fill="none" stroke="black" cx="95.88" cy="-90" rx="95.88" ry="18"/>
<text xml:space="preserve" text-anchor="middle" x="95.88" y="-84.95" font-family="Times,serif" font-size="14.00">[root] @api/hono#start</text>
</g>
<!-- [root] ___ROOT___ -->
<g id="node2" class="node">
<title>[root] ___ROOT___</title>
<ellipse fill="none" stroke="black" cx="688.88" cy="-18" rx="87.18" ry="18"/>
<text xml:space="preserve" text-anchor="middle" x="688.88" y="-12.95" font-family="Times,serif" font-size="14.00">[root] ___ROOT___</text>
</g>
<!-- [root] @api/hono#start&#45;&gt;[root] ___ROOT___ -->
<g id="edge1" class="edge">
<title>[root] @api/hono#start&#45;&gt;[root] ___ROOT___</title>
<path fill="none" stroke="black" d="M165.27,-77.24C177.14,-75.38 189.35,-73.56 200.88,-72 339.59,-53.25 501.19,-36.74 599.21,-27.32"/>
<polygon fill="black" stroke="black" points="599.42,-30.82 609.04,-26.38 598.75,-23.85 599.42,-30.82"/>
</g>
<!-- [root] @packages/auth#start -->
<g id="node3" class="node">
<title>[root] @packages/auth#start</title>
<ellipse fill="none" stroke="black" cx="325.88" cy="-90" rx="115.84" ry="18"/>
<text xml:space="preserve" text-anchor="middle" x="325.88" y="-84.95" font-family="Times,serif" font-size="14.00">[root] @packages/auth#start</text>
</g>
<!-- [root] @packages/auth#start&#45;&gt;[root] ___ROOT___ -->
<g id="edge2" class="edge">
<title>[root] @packages/auth#start&#45;&gt;[root] ___ROOT___</title>
<path fill="none" stroke="black" d="M396.73,-75.34C459.79,-63.18 551.68,-45.46 615.5,-33.15"/>
<polygon fill="black" stroke="black" points="616.03,-36.61 625.19,-31.28 614.71,-29.74 616.03,-36.61"/>
</g>
<!-- [root] @packages/db#start -->
<g id="node4" class="node">
<title>[root] @packages/db#start</title>
<ellipse fill="none" stroke="black" cx="568.88" cy="-90" rx="109.19" ry="18"/>
<text xml:space="preserve" text-anchor="middle" x="568.88" y="-84.95" font-family="Times,serif" font-size="14.00">[root] @packages/db#start</text>
</g>
<!-- [root] @packages/db#start&#45;&gt;[root] ___ROOT___ -->
<g id="edge3" class="edge">
<title>[root] @packages/db#start&#45;&gt;[root] ___ROOT___</title>
<path fill="none" stroke="black" d="M597.62,-72.23C613.62,-62.9 633.73,-51.17 651,-41.1"/>
<polygon fill="black" stroke="black" points="652.6,-44.21 659.48,-36.15 649.08,-38.17 652.6,-44.21"/>
</g>
<!-- [root] @packages/env#start -->
<g id="node5" class="node">
<title>[root] @packages/env#start</title>
<ellipse fill="none" stroke="black" cx="808.88" cy="-90" rx="113.28" ry="18"/>
<text xml:space="preserve" text-anchor="middle" x="808.88" y="-84.95" font-family="Times,serif" font-size="14.00">[root] @packages/env#start</text>
</g>
<!-- [root] @packages/env#start&#45;&gt;[root] ___ROOT___ -->
<g id="edge4" class="edge">
<title>[root] @packages/env#start&#45;&gt;[root] ___ROOT___</title>
<path fill="none" stroke="black" d="M780.14,-72.23C764.14,-62.9 744.03,-51.17 726.76,-41.1"/>
<polygon fill="black" stroke="black" points="728.68,-38.17 718.28,-36.15 725.15,-44.21 728.68,-38.17"/>
</g>
<!-- [root] @packages/tsconfig#start -->
<g id="node6" class="node">
<title>[root] @packages/tsconfig#start</title>
<ellipse fill="none" stroke="black" cx="1069.88" cy="-90" rx="129.66" ry="18"/>
<text xml:space="preserve" text-anchor="middle" x="1069.88" y="-84.95" font-family="Times,serif" font-size="14.00">[root] @packages/tsconfig#start</text>
</g>
<!-- [root] @packages/tsconfig#start&#45;&gt;[root] ___ROOT___ -->
<g id="edge5" class="edge">
<title>[root] @packages/tsconfig#start&#45;&gt;[root] ___ROOT___</title>
<path fill="none" stroke="black" d="M993.69,-75C926.77,-62.71 829.98,-44.92 763.52,-32.71"/>
<polygon fill="black" stroke="black" points="764.26,-29.29 753.79,-30.93 763,-36.18 764.26,-29.29"/>
</g>
<!-- [root] @web/next#start -->
<g id="node7" class="node">
<title>[root] @web/next#start</title>
<ellipse fill="none" stroke="black" cx="1314.88" cy="-90" rx="97.41" ry="18"/>
<text xml:space="preserve" text-anchor="middle" x="1314.88" y="-84.95" font-family="Times,serif" font-size="14.00">[root] @web/next#start</text>
</g>
<!-- [root] @web/next#start&#45;&gt;[root] ___ROOT___ -->
<g id="edge6" class="edge">
<title>[root] @web/next#start&#45;&gt;[root] ___ROOT___</title>
<path fill="none" stroke="black" d="M1244.54,-77.14C1232.66,-75.3 1220.43,-73.51 1208.88,-72 1058.84,-52.34 883.64,-35.8 779.71,-26.67"/>
<polygon fill="black" stroke="black" points="780.11,-23.19 769.84,-25.8 779.49,-30.16 780.11,-23.19"/>
</g>
</g>
</svg>
