<?xml version="1.0" encoding="UTF-8" standalone="no"?>
<!DOCTYPE svg PUBLIC "-//W3C//DTD SVG 1.1//EN"
 "http://www.w3.org/Graphics/SVG/1.1/DTD/svg11.dtd">
<!-- Generated by graphviz version 14.0.4 (20251115.1723)
 -->
<!-- Pages: 1 -->
<svg width="569pt" height="476pt"
 viewBox="0.00 0.00 569.00 476.00" xmlns="http://www.w3.org/2000/svg" xmlns:xlink="http://www.w3.org/1999/xlink">
<g id="graph0" class="graph" transform="scale(1 1) rotate(0) translate(4 472)">
<polygon fill="white" stroke="none" points="-4,4 -4,-472 564.95,-472 564.95,4 -4,4"/>
<!-- [root] @api/hono#build -->
<g id="node1" class="node">
<title>[root] @api/hono#build</title>
<ellipse fill="none" stroke="black" cx="98.95" cy="-378" rx="98.95" ry="18"/>
<text xml:space="preserve" text-anchor="middle" x="98.95" y="-372.95" font-family="Times,serif" font-size="14.00">[root] @api/hono#build</text>
</g>
<!-- [root] @packages/auth#build -->
<g id="node2" class="node">
<title>[root] @packages/auth#build</title>
<ellipse fill="none" stroke="black" cx="351.95" cy="-306" rx="118.91" ry="18"/>
<text xml:space="preserve" text-anchor="middle" x="351.95" y="-300.95" font-family="Times,serif" font-size="14.00">[root] @packages/auth#build</text>
</g>
<!-- [root] @api/hono#build&#45;&gt;[root] @packages/auth#build -->
<g id="edge1" class="edge">
<title>[root] @api/hono#build&#45;&gt;[root] @packages/auth#build</title>
<path fill="none" stroke="black" d="M151.68,-362.41C190.63,-351.63 243.92,-336.89 285.74,-325.32"/>
<polygon fill="black" stroke="black" points="286.5,-328.74 295.2,-322.7 284.63,-321.99 286.5,-328.74"/>
</g>
<!-- [root] @packages/env#build -->
<g id="node3" class="node">
<title>[root] @packages/env#build</title>
<ellipse fill="none" stroke="black" cx="242.95" cy="-162" rx="116.35" ry="18"/>
<text xml:space="preserve" text-anchor="middle" x="242.95" y="-156.95" font-family="Times,serif" font-size="14.00">[root] @packages/env#build</text>
</g>
<!-- [root] @api/hono#build&#45;&gt;[root] @packages/env#build -->
<g id="edge2" class="edge">
<title>[root] @api/hono#build&#45;&gt;[root] @packages/env#build</title>
<path fill="none" stroke="black" d="M107.01,-359.66C121.59,-329.16 154.25,-264.53 190.95,-216 198.3,-206.28 207.31,-196.52 215.75,-188.07"/>
<polygon fill="black" stroke="black" points="218.12,-190.64 222.84,-181.16 213.23,-185.63 218.12,-190.64"/>
</g>
<!-- [root] @packages/tsconfig#build -->
<g id="node4" class="node">
<title>[root] @packages/tsconfig#build</title>
<ellipse fill="none" stroke="black" cx="386.95" cy="-90" rx="132.73" ry="18"/>
<text xml:space="preserve" text-anchor="middle" x="386.95" y="-84.95" font-family="Times,serif" font-size="14.00">[root] @packages/tsconfig#build</text>
</g>
<!-- [root] @api/hono#build&#45;&gt;[root] @packages/tsconfig#build -->
<g id="edge3" class="edge">
<title>[root] @api/hono#build&#45;&gt;[root] @packages/tsconfig#build</title>
<path fill="none" stroke="black" d="M94.16,-359.71C83.48,-317.05 62.81,-205.76 117.95,-144 137.68,-121.9 201.85,-108.76 262.56,-101.09"/>
<polygon fill="black" stroke="black" points="262.83,-104.58 272.34,-99.9 261.99,-97.63 262.83,-104.58"/>
</g>
<!-- [root] @packages/auth#build&#45;&gt;[root] @packages/env#build -->
<g id="edge5" class="edge">
<title>[root] @packages/auth#build&#45;&gt;[root] @packages/env#build</title>
<path fill="none" stroke="black" d="M309.36,-288.97C292.2,-280.46 273.72,-268.33 261.95,-252 249.37,-234.55 244.8,-210.48 243.27,-191.77"/>
<polygon fill="black" stroke="black" points="246.77,-191.68 242.74,-181.89 239.78,-192.06 246.77,-191.68"/>
</g>
<!-- [root] @packages/auth#build&#45;&gt;[root] @packages/tsconfig#build -->
<g id="edge6" class="edge">
<title>[root] @packages/auth#build&#45;&gt;[root] @packages/tsconfig#build</title>
<path fill="none" stroke="black" d="M440.04,-293.67C464.72,-285.98 488.9,-273.19 503.95,-252 539.07,-202.56 471.04,-145.23 424.79,-114.07"/>
<polygon fill="black" stroke="black" points="426.84,-111.23 416.56,-108.67 422.99,-117.08 426.84,-111.23"/>
</g>
<!-- [root] @packages/db#build -->
<g id="node5" class="node">
<title>[root] @packages/db#build</title>
<ellipse fill="none" stroke="black" cx="382.95" cy="-234" rx="112.26" ry="18"/>
<text xml:space="preserve" text-anchor="middle" x="382.95" y="-228.95" font-family="Times,serif" font-size="14.00">[root] @packages/db#build</text>
</g>
<!-- [root] @packages/auth#build&#45;&gt;[root] @packages/db#build -->
<g id="edge4" class="edge">
<title>[root] @packages/auth#build&#45;&gt;[root] @packages/db#build</title>
<path fill="none" stroke="black" d="M359.61,-287.7C362.99,-280.07 367.04,-270.92 370.82,-262.4"/>
<polygon fill="black" stroke="black" points="373.91,-264.05 374.76,-253.49 367.51,-261.21 373.91,-264.05"/>
</g>
<!-- [root] @packages/env#build&#45;&gt;[root] @packages/tsconfig#build -->
<g id="edge9" class="edge">
<title>[root] @packages/env#build&#45;&gt;[root] @packages/tsconfig#build</title>
<path fill="none" stroke="black" d="M277.08,-144.41C296.57,-134.93 321.24,-122.94 342.27,-112.72"/>
<polygon fill="black" stroke="black" points="343.74,-115.89 351.21,-108.37 340.68,-109.6 343.74,-115.89"/>
</g>
<!-- [root] ___ROOT___ -->
<g id="node6" class="node">
<title>[root] ___ROOT___</title>
<ellipse fill="none" stroke="black" cx="386.95" cy="-18" rx="87.18" ry="18"/>
<text xml:space="preserve" text-anchor="middle" x="386.95" y="-12.95" font-family="Times,serif" font-size="14.00">[root] ___ROOT___</text>
</g>
<!-- [root] @packages/tsconfig#build&#45;&gt;[root] ___ROOT___ -->
<g id="edge10" class="edge">
<title>[root] @packages/tsconfig#build&#45;&gt;[root] ___ROOT___</title>
<path fill="none" stroke="black" d="M386.95,-71.7C386.95,-64.41 386.95,-55.73 386.95,-47.54"/>
<polygon fill="black" stroke="black" points="390.45,-47.62 386.95,-37.62 383.45,-47.62 390.45,-47.62"/>
</g>
<!-- [root] @packages/db#build&#45;&gt;[root] @packages/env#build -->
<g id="edge7" class="edge">
<title>[root] @packages/db#build&#45;&gt;[root] @packages/env#build</title>
<path fill="none" stroke="black" d="M349.77,-216.41C330.9,-206.98 307.05,-195.05 286.67,-184.86"/>
<polygon fill="black" stroke="black" points="288.24,-181.73 277.73,-180.39 285.11,-187.99 288.24,-181.73"/>
</g>
<!-- [root] @packages/db#build&#45;&gt;[root] @packages/tsconfig#build -->
<g id="edge8" class="edge">
<title>[root] @packages/db#build&#45;&gt;[root] @packages/tsconfig#build</title>
<path fill="none" stroke="black" d="M383.44,-215.59C384.12,-191.61 385.34,-148.14 386.15,-119.42"/>
<polygon fill="black" stroke="black" points="389.64,-119.72 386.42,-109.62 382.64,-119.52 389.64,-119.72"/>
</g>
<!-- [root] @web/next#build -->
<g id="node7" class="node">
<title>[root] @web/next#build</title>
<ellipse fill="none" stroke="black" cx="266.95" cy="-450" rx="100.48" ry="18"/>
<text xml:space="preserve" text-anchor="middle" x="266.95" y="-444.95" font-family="Times,serif" font-size="14.00">[root] @web/next#build</text>
</g>
<!-- [root] @web/next#build&#45;&gt;[root] @api/hono#build -->
<g id="edge11" class="edge">
<title>[root] @web/next#build&#45;&gt;[root] @api/hono#build</title>
<path fill="none" stroke="black" d="M228.41,-432.94C204.5,-422.98 173.57,-410.09 147.94,-399.41"/>
<polygon fill="black" stroke="black" points="149.29,-396.18 138.71,-395.57 146.59,-402.64 149.29,-396.18"/>
</g>
<!-- [root] @web/next#build&#45;&gt;[root] @packages/auth#build -->
<g id="edge12" class="edge">
<title>[root] @web/next#build&#45;&gt;[root] @packages/auth#build</title>
<path fill="none" stroke="black" d="M277.2,-431.87C291.75,-407.56 318.54,-362.82 335.78,-334.01"/>
<polygon fill="black" stroke="black" points="338.75,-335.87 340.88,-325.49 332.74,-332.27 338.75,-335.87"/>
</g>
<!-- [root] @web/next#build&#45;&gt;[root] @packages/env#build -->
<g id="edge13" class="edge">
<title>[root] @web/next#build&#45;&gt;[root] @packages/env#build</title>
<path fill="none" stroke="black" d="M258.93,-431.68C248.44,-407.98 230.61,-363.84 223.95,-324 216.22,-277.77 226.59,-223.55 234.78,-191.3"/>
<polygon fill="black" stroke="black" points="238.08,-192.5 237.27,-181.93 231.32,-190.7 238.08,-192.5"/>
</g>
<!-- [root] @web/next#build&#45;&gt;[root] @packages/tsconfig#build -->
<g id="edge14" class="edge">
<title>[root] @web/next#build&#45;&gt;[root] @packages/tsconfig#build</title>
<path fill="none" stroke="black" d="M358.76,-442.5C445.03,-430.8 560.95,-398.12 560.95,-307 560.95,-307 560.95,-307 560.95,-233 560.95,-172.39 496.8,-133.03 446.4,-111.46"/>
<polygon fill="black" stroke="black" points="447.86,-108.28 437.28,-107.7 445.19,-114.75 447.86,-108.28"/>
</g>
</g>
</svg>
