<?xml version="1.0" encoding="UTF-8" standalone="no"?>
<!DOCTYPE svg PUBLIC "-//W3C//DTD SVG 1.1//EN"
 "http://www.w3.org/Graphics/SVG/1.1/DTD/svg11.dtd">
<!-- Generated by graphviz version 14.0.4 (20251115.1723)
 -->
<!-- Pages: 1 -->
<svg width="476pt" height="476pt"
 viewBox="0.00 0.00 476.00 476.00" xmlns="http://www.w3.org/2000/svg" xmlns:xlink="http://www.w3.org/1999/xlink">
<g id="graph0" class="graph" transform="scale(1 1) rotate(0) translate(4 472)">
<polygon fill="white" stroke="none" points="-4,4 -4,-472 472.21,-472 472.21,4 -4,4"/>
<!-- [root] @api/hono#build -->
<g id="node1" class="node">
<title>[root] @api/hono#build</title>
<ellipse fill="none" stroke="black" cx="204.73" cy="-378" rx="98.95" ry="18"/>
<text xml:space="preserve" text-anchor="middle" x="204.73" y="-372.95" font-family="Times,serif" font-size="14.00">[root] @api/hono#build</text>
</g>
<!-- [root] @packages/auth#build -->
<g id="node2" class="node">
<title>[root] @packages/auth#build</title>
<ellipse fill="none" stroke="black" cx="167.73" cy="-306" rx="118.91" ry="18"/>
<text xml:space="preserve" text-anchor="middle" x="167.73" y="-300.95" font-family="Times,serif" font-size="14.00">[root] @packages/auth#build</text>
</g>
<!-- [root] @api/hono#build&#45;&gt;[root] @packages/auth#build -->
<g id="edge1" class="edge">
<title>[root] @api/hono#build&#45;&gt;[root] @packages/auth#build</title>
<path fill="none" stroke="black" d="M195.58,-359.7C191.51,-351.98 186.61,-342.71 182.06,-334.11"/>
<polygon fill="black" stroke="black" points="185.24,-332.65 177.48,-325.44 179.06,-335.92 185.24,-332.65"/>
</g>
<!-- [root] @packages/env#build -->
<g id="node3" class="node">
<title>[root] @packages/env#build</title>
<ellipse fill="none" stroke="black" cx="276.73" cy="-162" rx="116.35" ry="18"/>
<text xml:space="preserve" text-anchor="middle" x="276.73" y="-156.95" font-family="Times,serif" font-size="14.00">[root] @packages/env#build</text>
</g>
<!-- [root] @api/hono#build&#45;&gt;[root] @packages/env#build -->
<g id="edge2" class="edge">
<title>[root] @api/hono#build&#45;&gt;[root] @packages/env#build</title>
<path fill="none" stroke="black" d="M250.46,-361.73C267.83,-353.45 285.8,-341.28 295.73,-324 319.67,-282.35 303.24,-224.66 289.63,-190.84"/>
<polygon fill="black" stroke="black" points="292.89,-189.58 285.77,-181.73 286.45,-192.31 292.89,-189.58"/>
</g>
<!-- [root] @packages/tsconfig#build -->
<g id="node4" class="node">
<title>[root] @packages/tsconfig#build</title>
<ellipse fill="none" stroke="black" cx="132.73" cy="-90" rx="132.73" ry="18"/>
<text xml:space="preserve" text-anchor="middle" x="132.73" y="-84.95" font-family="Times,serif" font-size="14.00">[root] @packages/tsconfig#build</text>
</g>
<!-- [root] @api/hono#build&#45;&gt;[root] @packages/tsconfig#build -->
<g id="edge3" class="edge">
<title>[root] @api/hono#build&#45;&gt;[root] @packages/tsconfig#build</title>
<path fill="none" stroke="black" d="M124.65,-367.23C94.56,-359.82 62.22,-346.82 39.73,-324 16.24,-300.17 22.67,-285.09 17.73,-252 10.57,-204.07 3.62,-182.74 32.73,-144 42.99,-130.34 57.82,-119.85 72.93,-111.94"/>
<polygon fill="black" stroke="black" points="74.03,-115.3 81.49,-107.78 70.97,-109 74.03,-115.3"/>
</g>
<!-- [root] @packages/auth#build&#45;&gt;[root] @packages/env#build -->
<g id="edge5" class="edge">
<title>[root] @packages/auth#build&#45;&gt;[root] @packages/env#build</title>
<path fill="none" stroke="black" d="M223.45,-289.64C242.26,-281.57 261.36,-269.57 272.73,-252 284.17,-234.32 284.57,-210.26 282.44,-191.62"/>
<polygon fill="black" stroke="black" points="285.91,-191.15 280.98,-181.77 278.98,-192.17 285.91,-191.15"/>
</g>
<!-- [root] @packages/auth#build&#45;&gt;[root] @packages/tsconfig#build -->
<g id="edge6" class="edge">
<title>[root] @packages/auth#build&#45;&gt;[root] @packages/tsconfig#build</title>
<path fill="none" stroke="black" d="M89.22,-292.07C66.59,-284.3 44.35,-271.88 30.73,-252 -2.05,-204.17 57.85,-146.38 98.9,-114.68"/>
<polygon fill="black" stroke="black" points="100.74,-117.67 106.63,-108.86 96.54,-112.07 100.74,-117.67"/>
</g>
<!-- [root] @packages/db#build -->
<g id="node5" class="node">
<title>[root] @packages/db#build</title>
<ellipse fill="none" stroke="black" cx="151.73" cy="-234" rx="112.26" ry="18"/>
<text xml:space="preserve" text-anchor="middle" x="151.73" y="-228.95" font-family="Times,serif" font-size="14.00">[root] @packages/db#build</text>
</g>
<!-- [root] @packages/auth#build&#45;&gt;[root] @packages/db#build -->
<g id="edge4" class="edge">
<title>[root] @packages/auth#build&#45;&gt;[root] @packages/db#build</title>
<path fill="none" stroke="black" d="M163.77,-287.7C162.09,-280.32 160.08,-271.52 158.19,-263.25"/>
<polygon fill="black" stroke="black" points="161.62,-262.55 155.98,-253.58 154.79,-264.11 161.62,-262.55"/>
</g>
<!-- [root] @packages/env#build&#45;&gt;[root] @packages/tsconfig#build -->
<g id="edge9" class="edge">
<title>[root] @packages/env#build&#45;&gt;[root] @packages/tsconfig#build</title>
<path fill="none" stroke="black" d="M242.6,-144.41C223.11,-134.93 198.43,-122.94 177.41,-112.72"/>
<polygon fill="black" stroke="black" points="178.99,-109.6 168.47,-108.37 175.93,-115.89 178.99,-109.6"/>
</g>
<!-- [root] ___ROOT___ -->
<g id="node6" class="node">
<title>[root] ___ROOT___</title>
<ellipse fill="none" stroke="black" cx="132.73" cy="-18" rx="87.18" ry="18"/>
<text xml:space="preserve" text-anchor="middle" x="132.73" y="-12.95" font-family="Times,serif" font-size="14.00">[root] ___ROOT___</text>
</g>
<!-- [root] @packages/tsconfig#build&#45;&gt;[root] ___ROOT___ -->
<g id="edge10" class="edge">
<title>[root] @packages/tsconfig#build&#45;&gt;[root] ___ROOT___</title>
<path fill="none" stroke="black" d="M132.73,-71.7C132.73,-64.41 132.73,-55.73 132.73,-47.54"/>
<polygon fill="black" stroke="black" points="136.23,-47.62 132.73,-37.62 129.23,-47.62 136.23,-47.62"/>
</g>
<!-- [root] @packages/db#build&#45;&gt;[root] @packages/env#build -->
<g id="edge7" class="edge">
<title>[root] @packages/db#build&#45;&gt;[root] @packages/env#build</title>
<path fill="none" stroke="black" d="M181.67,-216.23C198.17,-206.99 218.87,-195.4 236.74,-185.4"/>
<polygon fill="black" stroke="black" points="238.26,-188.55 245.28,-180.61 234.84,-182.44 238.26,-188.55"/>
</g>
<!-- [root] @packages/db#build&#45;&gt;[root] @packages/tsconfig#build -->
<g id="edge8" class="edge">
<title>[root] @packages/db#build&#45;&gt;[root] @packages/tsconfig#build</title>
<path fill="none" stroke="black" d="M149.4,-215.59C146.19,-191.61 140.37,-148.14 136.53,-119.42"/>
<polygon fill="black" stroke="black" points="140.01,-119.06 135.22,-109.61 133.08,-119.99 140.01,-119.06"/>
</g>
<!-- [root] @web/next#build -->
<g id="node7" class="node">
<title>[root] @web/next#build</title>
<ellipse fill="none" stroke="black" cx="367.73" cy="-450" rx="100.48" ry="18"/>
<text xml:space="preserve" text-anchor="middle" x="367.73" y="-444.95" font-family="Times,serif" font-size="14.00">[root] @web/next#build</text>
</g>
<!-- [root] @web/next#build&#45;&gt;[root] @api/hono#build -->
<g id="edge11" class="edge">
<title>[root] @web/next#build&#45;&gt;[root] @api/hono#build</title>
<path fill="none" stroke="black" d="M330.33,-432.94C307.22,-423.02 277.34,-410.18 252.52,-399.53"/>
<polygon fill="black" stroke="black" points="254.19,-396.43 243.62,-395.7 251.43,-402.87 254.19,-396.43"/>
</g>
<!-- [root] @web/next#build&#45;&gt;[root] @packages/env#build -->
<g id="edge12" class="edge">
<title>[root] @web/next#build&#45;&gt;[root] @packages/env#build</title>
<path fill="none" stroke="black" d="M366.47,-431.53C363.05,-391.63 351.42,-291.43 316.73,-216 312.32,-206.41 305.95,-196.9 299.58,-188.64"/>
<polygon fill="black" stroke="black" points="302.47,-186.65 293.46,-181.09 297.04,-191.06 302.47,-186.65"/>
</g>
<!-- [root] @web/next#build&#45;&gt;[root] @packages/tsconfig#build -->
<g id="edge13" class="edge">
<title>[root] @web/next#build&#45;&gt;[root] @packages/tsconfig#build</title>
<path fill="none" stroke="black" d="M378.71,-431.84C394.23,-405.89 420.73,-354.63 420.73,-307 420.73,-307 420.73,-307 420.73,-233 420.73,-192.55 430.55,-172.37 401.73,-144 380.37,-122.98 314.95,-109.81 253.97,-101.86"/>
<polygon fill="black" stroke="black" points="254.51,-98.4 244.15,-100.63 253.64,-105.35 254.51,-98.4"/>
</g>
</g>
</svg>
